<mxfile host="app.diagrams.net" modified="2024-05-23T08:44:07.222Z" agent="Mozilla/5.0 (Windows NT 10.0; Win64; x64) AppleWebKit/537.36 (KHTML, like Gecko) Chrome/124.0.0.0 Safari/537.36" etag="i0IsvShlJLGecSMUDAiv" version="24.4.6" type="device">
  <diagram name="Page-1" id="0SBXd49LUMcfFHOJyT-W">
    <mxGraphModel dx="618" dy="522" grid="1" gridSize="10" guides="1" tooltips="1" connect="1" arrows="1" fold="1" page="1" pageScale="1" pageWidth="2336" pageHeight="1654" math="0" shadow="0">
      <root>
        <mxCell id="0" />
        <mxCell id="1" parent="0" />
        <mxCell id="LVzLQ8PIczJLZQD4RkMt-1" value="E67 Birth" style="rounded=0;whiteSpace=wrap;html=1;fillColor=default;strokeColor=#FFC933;" parent="1" vertex="1">
          <mxGeometry x="770" y="390" width="120" height="60" as="geometry" />
        </mxCell>
        <mxCell id="LVzLQ8PIczJLZQD4RkMt-3" value="E54 Dimension (&lt;b&gt;age&lt;/b&gt;)" style="rounded=0;whiteSpace=wrap;html=1;strokeColor=#FF0000;" parent="1" vertex="1">
          <mxGeometry x="1108" y="190" width="120" height="60" as="geometry" />
        </mxCell>
        <mxCell id="LVzLQ8PIczJLZQD4RkMt-8" value="" style="endArrow=classic;html=1;rounded=0;entryX=0.5;entryY=0;entryDx=0;entryDy=0;exitX=0.5;exitY=1;exitDx=0;exitDy=0;" parent="1" source="LVzLQ8PIczJLZQD4RkMt-1" edge="1">
          <mxGeometry width="50" height="50" relative="1" as="geometry">
            <mxPoint x="920" y="510" as="sourcePoint" />
            <mxPoint x="830" y="590" as="targetPoint" />
          </mxGeometry>
        </mxCell>
        <mxCell id="LVzLQ8PIczJLZQD4RkMt-10" value="crm:P98 brought into life" style="rounded=0;whiteSpace=wrap;html=1;strokeColor=#FFFFFF;" parent="1" vertex="1">
          <mxGeometry x="780" y="500" width="100" height="40" as="geometry" />
        </mxCell>
        <mxCell id="LVzLQ8PIczJLZQD4RkMt-11" value="E21 Person" style="rounded=0;whiteSpace=wrap;html=1;" parent="1" vertex="1">
          <mxGeometry x="770" y="590" width="120" height="60" as="geometry" />
        </mxCell>
        <mxCell id="LVzLQ8PIczJLZQD4RkMt-44" value="E52 Time-Span (&quot;Ã‚ge&quot;)" style="rounded=0;whiteSpace=wrap;html=1;strokeColor=#007FFF;" parent="1" vertex="1">
          <mxGeometry x="1108" y="390" width="120" height="60" as="geometry" />
        </mxCell>
        <mxCell id="LVzLQ8PIczJLZQD4RkMt-45" value="" style="endArrow=classic;html=1;rounded=0;exitX=0.5;exitY=1;exitDx=0;exitDy=0;entryX=0.5;entryY=0;entryDx=0;entryDy=0;" parent="1" source="LVzLQ8PIczJLZQD4RkMt-3" target="LVzLQ8PIczJLZQD4RkMt-44" edge="1">
          <mxGeometry width="50" height="50" relative="1" as="geometry">
            <mxPoint x="1420" y="320" as="sourcePoint" />
            <mxPoint x="1162" y="388" as="targetPoint" />
          </mxGeometry>
        </mxCell>
        <mxCell id="LVzLQ8PIczJLZQD4RkMt-5" value="crm:P191 was duration of" style="rounded=0;whiteSpace=wrap;html=1;strokeColor=#FFFFFF;" parent="1" vertex="1">
          <mxGeometry x="1108" y="300" width="120" height="40" as="geometry" />
        </mxCell>
        <mxCell id="LVzLQ8PIczJLZQD4RkMt-49" value="" style="endArrow=classic;html=1;rounded=0;entryX=1;entryY=0.5;entryDx=0;entryDy=0;exitX=0;exitY=0.5;exitDx=0;exitDy=0;" parent="1" source="LVzLQ8PIczJLZQD4RkMt-44" target="LVzLQ8PIczJLZQD4RkMt-1" edge="1">
          <mxGeometry width="50" height="50" relative="1" as="geometry">
            <mxPoint x="1238" y="430" as="sourcePoint" />
            <mxPoint x="1390" y="430" as="targetPoint" />
          </mxGeometry>
        </mxCell>
        <mxCell id="LVzLQ8PIczJLZQD4RkMt-50" value="crm:P4 is time-span of" style="rounded=0;whiteSpace=wrap;html=1;strokeColor=#FFFFFF;" parent="1" vertex="1">
          <mxGeometry x="940" y="400" width="130" height="40" as="geometry" />
        </mxCell>
      </root>
    </mxGraphModel>
  </diagram>
</mxfile>
